<svg id="line" height="512" viewBox="0 0 64 64" width="512" xmlns="http://www.w3.org/2000/svg"><path d="m47 61h-3v-4h-12v4h-3a1 1 0 0 0 0 2h18a1 1 0 0 0 0-2z" fill="#c4a2fc"/><path d="m60 19h-44a3 3 0 0 0 -3 3v23h50v-23a3 3 0 0 0 -3-3zm-36.209 9.022 28-6a1 1 0 1 1 .418 1.956l-28 6a1 1 0 1 1 -.418-1.956zm1.209 12.978a1 1 0 0 1 -2 0v-8a1 1 0 0 1 2 0zm7 0a1 1 0 0 1 -2 0v-9.5a1 1 0 0 1 2 0zm7 0a1 1 0 0 1 -2 0v-11a1 1 0 0 1 2 0zm7 0a1 1 0 0 1 -2 0v-12.5a1 1 0 0 1 2 0zm7 0a1 1 0 0 1 -2 0v-14a1 1 0 0 1 2 0z" fill="#c4a2fc"/><path d="m13 52a3 3 0 0 0 3 3h44a3 3 0 0 0 3-3v-5h-50zm22-2h6a1 1 0 0 1 0 2h-6a1 1 0 0 1 0-2z" fill="#c4a2fc"/><g fill="#151a6a"><path d="m48 1h-44a3 3 0 0 0 0 6v29a3 3 0 0 0 3 3h18v3.586l-4.707 4.707a1 1 0 0 0 1.414 1.414l3.293-3.293v2.586a1 1 0 0 0 2 0v-2.586l3.293 3.293a1 1 0 0 0 1.414-1.414l-4.707-4.707v-3.586h18a3 3 0 0 0 3-3v-29a3 3 0 0 0 0-6zm-2 35a1 1 0 0 1 -1 1h-38a1 1 0 0 1 -1-1v-29h40zm2-31h-44a1 1 0 0 1 0-2h44a1 1 0 0 1 0 2z"/><path d="m20 33a11.013 11.013 0 0 0 11-11 1 1 0 0 0 -1-1h-8v-8.95a1 1 0 0 0 -.9-1c-.363-.031-.729-.05-1.1-.05a11 11 0 0 0 0 22zm0-20v9a1 1 0 0 0 1 1h7.945a9 9 0 1 1 -8.945-10z"/><path d="m35 13h7a1 1 0 0 0 0-2h-7a1 1 0 0 0 0 2z"/><path d="m35 19h7a1 1 0 0 0 0-2h-7a1 1 0 0 0 0 2z"/></g></svg>